<svg width="525" height="431" viewBox="0 0 525 431" fill="none" xmlns="http://www.w3.org/2000/svg">
<path d="M474.103 0C501.717 0 524.103 22.3858 524.103 50V94C524.103 121.614 501.717 144 474.103 144H282.415C271.52 144 261.005 148.005 252.87 155.252C243.41 163.68 238 175.746 238 188.415V239.901C238 252.186 242.605 264.023 250.905 273.079C260.205 283.224 273.336 289 287.099 289H474.103C501.717 289 524.103 311.386 524.103 339V380.5C524.103 408.114 501.717 430.5 474.103 430.5H279C251.386 430.5 229 408.114 229 380.5V323.57C229 314.253 225.24 305.331 218.571 298.825C212.114 292.526 203.451 289 194.43 289H133.327C123.116 289 113.242 292.662 105.5 299.32C97.1574 306.495 91.9083 316.614 90.8484 327.566L90.6492 329.625C89.8953 337.416 87.1884 344.89 82.7791 351.357L81.9811 352.528C77.1122 359.669 70.1611 365.136 62.074 368.185L60.6485 368.723C50.0803 372.707 38.2994 371.881 28.3912 366.459C21.3079 362.584 15.6129 356.591 12.1026 349.32L10.8673 346.761C6.15449 336.999 5.56048 325.752 9.2187 315.548C11.6929 308.646 15.9978 302.547 21.6723 297.904L24.7566 295.381C31.4602 289.896 39.5243 286.33 48.0922 285.06C57.1729 283.715 65.7506 279.727 72.6669 273.691C83.2882 264.421 89.5 250.91 89.5 236.813V194.533C89.5 178.462 80.7987 163.65 66.7609 155.826C61.638 152.97 55.9991 151.16 50.1713 150.501L45.9607 150.024C37.1637 149.028 28.8227 145.584 21.8862 140.082C19.3025 138.033 16.9401 135.719 14.8376 133.179L13.2846 131.302C8.51092 125.534 5.32521 118.62 4.04233 111.243C2.70595 103.559 3.48356 95.6562 6.29198 88.3799L6.46886 87.9216C10.6495 77.0898 18.9749 68.371 29.6022 63.695C35.1402 61.2583 41.1244 60 47.1748 60H49.7711C62.7833 60 74.9982 66.2701 82.583 76.843C85.5022 80.9122 87.639 85.4888 88.8844 90.3394L93.7706 109.37C95.5651 116.359 98.9754 122.829 103.727 128.259C112.48 138.262 125.124 144 138.416 144H187.85C200.844 144 213.075 137.862 220.842 127.444C226.139 120.338 229 111.713 229 102.85V50C229 22.3858 251.386 0 279 0H474.103Z" fill="#878787"/>
<path d="M90 104C90 128.853 69.8528 149 45 149C20.1472 149 0 128.853 0 104C0 79.1472 20.1472 59 45 59C69.8528 59 90 79.1472 90 104Z" fill="#878787"/>
<path d="M90 331C90 355.853 69.8528 376 45 376C20.1472 376 0 355.853 0 331C0 306.147 20.1472 286 45 286C69.8528 286 90 306.147 90 331Z" fill="#878787"/>
</svg>
