<svg width="73" height="60" viewBox="0 0 73 60" fill="none" xmlns="http://www.w3.org/2000/svg">
<path d="M66.0357 0C69.882 0 73 3.11997 73 6.96864V13.101C73 16.9497 69.882 20.0697 66.0357 20.0697H39.3364C37.8189 20.0697 36.3543 20.6278 35.2212 21.6379C33.9036 22.8125 33.15 24.4942 33.15 26.26V33.4357C33.15 35.1478 33.7914 36.7977 34.9475 38.0597C36.2429 39.4737 38.0718 40.2787 39.9887 40.2787H66.0357C69.882 40.2787 73 43.3987 73 47.2474V53.0314C73 56.88 69.882 60 66.0357 60H38.8607C35.0144 60 31.8964 56.88 31.8964 53.0314V45.0969C31.8964 43.7984 31.3727 42.5549 30.4438 41.6481C29.5445 40.7702 28.3378 40.2787 27.0813 40.2787H18.5706C17.1482 40.2787 15.773 40.7891 14.6946 41.7171C13.5326 42.717 12.8015 44.1274 12.6539 45.6539L12.6261 45.9408C12.5211 47.0266 12.1441 48.0683 11.5299 48.9697L11.4188 49.1328C10.7406 50.128 9.77244 50.89 8.64602 51.315L8.44747 51.3899C6.97548 51.9453 5.33456 51.8301 3.9545 51.0745C2.96789 50.5343 2.17465 49.6991 1.68572 48.6857L1.51367 48.329C0.857233 46.9684 0.774495 45.401 1.28403 43.9788C1.62866 43.0169 2.22826 42.1669 3.01864 41.5198L3.44824 41.1681C4.38195 40.4037 5.50517 39.9066 6.69856 39.7297C7.96337 39.5422 9.15812 38.9863 10.1215 38.1451C11.6009 36.8531 12.4661 34.9701 12.4661 33.0053V27.1126C12.4661 24.8727 11.2541 22.8084 9.29884 21.7179C8.58529 21.3199 7.79988 21.0676 6.98815 20.9757L6.40167 20.9092C5.17637 20.7704 4.01459 20.2904 3.04844 19.5236C2.68856 19.2381 2.35951 18.9156 2.06667 18.5615L1.85035 18.3C1.18545 17.496 0.741726 16.5324 0.563039 15.5043C0.3769 14.4333 0.48521 13.3319 0.876383 12.3178L0.90102 12.2539C1.48333 10.7442 2.64293 9.52907 4.12316 8.87736C4.89453 8.53775 5.72804 8.36237 6.57077 8.36237H6.9324C8.74481 8.36237 10.4462 9.23626 11.5026 10.7098C11.9092 11.277 12.2069 11.9148 12.3803 12.5909L13.0609 15.2432C13.3109 16.2173 13.7859 17.119 14.4477 17.8759C15.6668 19.27 17.428 20.0697 19.2793 20.0697H26.1648C27.9748 20.0697 29.6784 19.2142 30.7601 17.7622C31.4979 16.7719 31.8964 15.5697 31.8964 14.3345V6.96864C31.8964 3.11997 35.0144 0 38.8607 0H66.0357Z" fill="#C1FF14"/>
<path d="M12.5357 14.4948C12.5357 17.9586 9.7295 20.7666 6.26786 20.7666C2.80622 20.7666 0 17.9586 0 14.4948C0 11.031 2.80622 8.223 6.26786 8.223C9.7295 8.223 12.5357 11.031 12.5357 14.4948Z" fill="#C1FF14"/>
<path d="M12.5357 46.1324C12.5357 49.5962 9.7295 52.4042 6.26786 52.4042C2.80622 52.4042 0 49.5962 0 46.1324C0 42.6686 2.80622 39.8606 6.26786 39.8606C9.7295 39.8606 12.5357 42.6686 12.5357 46.1324Z" fill="#C1FF14"/>
</svg>
